# xmcd
#
# Track frame offsets: 
#        182
#        11607
#        23120
#        34482
#        46145
#        56607
#        68232
#        80197
#        88707
#        99957
#        111320
#        124632
#        137907
#        149007
#        160032
#        172670
#        182757
#        196970
#        208107
#        219995
#        233195
#        243532
#        256295
#        268332
#        280257
#
# Disc length: 3884 seconds
#
# Revision: 0
# Processed by: cddbd v1.4PL0 Copyright (c) Steve Scherf et al.
# Submitted via: ExactAudioCopy v0.90b3
#
DISCID=710f2a19
DTITLE=Jim Reeves - Welcome To My World - Disc 13
DYEAR=1900
DGENRE=Country
TTITLE0=Mexicali Rose (1964)
TTITLE1=Carolina Moon (1964)
TTITLE2=Moon River (1964)
TTITLE3=When I Lost You (1964)
TTITLE4=It's Only A Paper Moon (1964)
TTITLE5=Roses (1964)
TTITLE6=There's A New Man Over My Shoulder (1964)
TTITLE7=One Dozen Roses (1964)
TTITLE8=Moonlight And Roses (1964)
TTITLE9=What's In It For Me (1964)
TTITLE10=Rosa Rio (1964)
TTITLE11=Oh What It Seemed To Be (1964)
TTITLE12=I Guess I'm Crazy (1964)
TTITLE13=Angels Don't Lie (1970)
TTITLE14=Not Until The Next Time (1964)
TTITLE15=I Won't Come In While He's There (1967)
TTITLE16=This Is It (1965)
TTITLE17=Make The World Go Away (1965)
TTITLE18=There's That Smile Again (1965)
TTITLE19=You'll Never Know (1965)
TTITLE20=Is It Really Over (1965)
TTITLE21=I Can't Stop Loving You (1965)
TTITLE22=In The Misty Moonlight (1965)
TTITLE23=Missing You (1968)
TTITLE24=Maureen (1965)
EXTD=
EXTT0=
EXTT1=
EXTT2=
EXTT3=
EXTT4=
EXTT5=
EXTT6=
EXTT7=
EXTT8=
EXTT9=
EXTT10=
EXTT11=
EXTT12=
EXTT13=
EXTT14=
EXTT15=
EXTT16=
EXTT17=
EXTT18=
EXTT19=
EXTT20=
EXTT21=
EXTT22=
EXTT23=
EXTT24=
PLAYORDER=
